<svg version="1.1" id="Layer_1" xmlns="http://www.w3.org/2000/svg" xmlns:xlink="http://www.w3.org/1999/xlink" x="0px" y="0px"
	 width="100%" viewBox="0 0 169 169" enable-background="new 0 0 169 169" xml:space="preserve">
<path fill="#FCFCFC" opacity="1.000000" stroke="none" 
	d="
M100.000000,170.000000 
	C66.666672,170.000000 33.833340,170.000000 1.000009,170.000000 
	C1.000006,113.666679 1.000006,57.333355 1.000003,1.000024 
	C57.333317,1.000016 113.666634,1.000016 169.999969,1.000008 
	C169.999969,57.333309 169.999969,113.666618 169.999985,169.999969 
	C146.833328,170.000000 123.666664,170.000000 100.000000,170.000000 
M89.245346,19.941710 
	C85.495193,20.472569 81.745049,21.003428 77.782494,21.564356 
	C84.762634,28.100954 90.998825,33.940872 97.829262,40.337280 
	C87.927895,42.754871 78.918793,44.954605 68.325180,47.541222 
	C71.355576,51.125645 73.635155,53.821983 75.914742,56.518322 
	C76.633698,56.358997 77.352661,56.199673 78.071625,56.040352 
	C74.996025,66.952759 71.920425,77.865166 68.852249,88.751228 
	C63.494297,87.783989 63.361153,88.233543 64.525574,93.058853 
	C65.158112,95.680069 64.818108,98.762138 64.110756,101.421982 
	C63.268993,104.587280 61.796143,107.653404 60.184799,110.531914 
	C56.114639,117.802910 51.813614,124.944679 47.605087,132.138229 
	C47.093399,131.934616 46.581707,131.731018 46.070015,131.527405 
	C46.070015,114.133072 45.978706,96.738014 46.116230,79.344765 
	C46.169140,72.653336 46.016262,66.263901 39.374592,63.310623 
	C45.248505,57.086662 50.896160,51.221668 56.377663,45.205288 
	C57.649921,43.808880 59.054733,41.952747 59.195251,40.211067 
	C59.678417,34.222473 50.370640,25.777676 45.251339,26.250557 
	C40.158531,48.832710 23.570461,64.245125 11.961095,83.409203 
	C22.300230,80.443413 27.802046,71.520569 36.236622,65.806488 
	C36.843998,68.787392 37.585651,71.172707 37.784657,73.602455 
	C39.375935,93.031128 39.440575,112.403152 35.860897,131.684723 
	C34.895763,136.883316 36.027073,141.827713 41.004425,146.795639 
	C42.883568,143.342194 44.441559,140.434448 46.046505,137.552856 
	C46.631268,136.502975 47.201981,135.402695 47.994102,134.517868 
	C52.693901,129.268097 57.629559,124.218063 62.122459,118.799507 
	C64.230110,116.257599 65.525284,113.042015 67.216446,110.083130 
	C71.049789,120.950058 65.931908,133.132904 74.291267,144.036667 
	C75.197060,141.348602 76.110466,139.880432 76.116333,138.408661 
	C76.143982,131.476059 76.569130,124.455582 75.651329,117.627907 
	C73.920715,104.753471 72.358101,92.097488 79.552971,80.221397 
	C80.138008,79.255722 80.107254,77.862457 80.796982,77.026077 
	C82.232292,75.285591 83.692627,72.914810 85.609283,72.328583 
	C97.443367,68.709045 109.128387,64.161629 123.009995,65.208038 
	C121.635056,62.270626 120.658867,60.185108 119.592484,57.906891 
	C121.771492,55.229824 123.969185,52.319115 126.386803,49.604259 
	C131.153091,44.251953 131.218521,44.141785 126.544823,38.488598 
	C125.593651,37.338085 124.695908,35.830589 123.437721,35.327477 
	C121.933121,34.725834 119.935799,34.572445 118.384102,35.023602 
	C114.190689,36.242821 110.120377,37.885437 105.834663,39.419716 
	C104.814812,29.429464 98.186600,21.516426 89.245346,19.941710 
M87.800217,100.765640 
	C90.066872,108.634048 83.401794,108.945084 78.930855,110.525879 
	C79.545326,117.249313 83.207222,116.775490 88.282097,114.537987 
	C88.282097,120.841423 88.282097,126.531715 88.282097,133.504791 
	C93.425072,129.039490 94.036049,124.512642 94.025665,119.649796 
	C94.009476,112.069183 96.567711,109.889641 103.937157,110.405075 
	C103.937157,119.732445 103.888313,129.017990 103.982201,138.302094 
	C103.999092,139.972488 104.603981,141.636932 104.937393,143.304123 
	C105.487808,143.267029 106.038231,143.229950 106.588646,143.192871 
	C114.035973,132.792755 112.718613,120.473564 113.210922,108.119354 
	C115.996140,108.119354 118.452789,108.254364 120.881462,108.052658 
	C121.847931,107.972397 123.242867,107.349754 123.550941,106.605087 
	C123.876060,105.819214 123.415535,103.920837 122.816704,103.673279 
	C119.850662,102.447151 116.725380,101.606209 113.606468,100.613663 
	C112.867592,96.495773 111.943642,91.346359 110.893486,85.493614 
	C116.030243,84.721451 121.720192,83.838654 127.419487,83.020950 
	C130.287491,82.609467 131.996674,83.880516 131.919922,86.830994 
	C131.575272,100.078186 131.818665,113.389603 130.523743,126.547333 
	C129.527634,136.668915 128.571182,136.636337 118.351067,135.761444 
	C117.955772,135.727615 117.540535,135.926804 117.962624,135.832596 
	C119.432091,139.879349 120.892334,143.856964 122.317863,147.846985 
	C122.928017,149.554779 123.088120,152.408081 124.122055,152.756943 
	C125.819496,153.329605 128.677185,152.969818 129.972733,151.807434 
	C136.780411,145.699509 141.420227,138.526794 142.300354,128.854706 
	C143.560303,115.008751 145.851913,101.257263 147.650574,87.458595 
	C147.791748,86.375664 147.966827,84.783089 147.371033,84.203156 
	C143.983337,80.905640 140.615753,77.455902 136.683151,74.925423 
	C135.410782,74.106689 132.455154,75.925964 130.260941,76.506104 
	C129.465866,76.716316 128.643616,76.821678 127.837425,76.992226 
	C121.688957,78.292931 115.514305,79.483246 109.399704,80.927643 
	C99.459572,83.275711 89.558914,85.790924 79.788918,88.199272 
	C79.492569,93.338501 82.344299,94.363235 86.399559,93.817116 
	C86.936760,96.064545 87.393272,97.974426 87.800217,100.765640 
z"/>
<path fill="#080808" opacity="1.000000" stroke="none" 
	d="
M89.673622,19.933083 
	C98.186600,21.516426 104.814812,29.429464 105.834663,39.419716 
	C110.120377,37.885437 114.190689,36.242821 118.384102,35.023602 
	C119.935799,34.572445 121.933121,34.725834 123.437721,35.327477 
	C124.695908,35.830589 125.593651,37.338085 126.544823,38.488598 
	C131.218521,44.141785 131.153091,44.251953 126.386803,49.604259 
	C123.969185,52.319115 121.771492,55.229824 119.592484,57.906891 
	C120.658867,60.185108 121.635056,62.270626 123.009995,65.208038 
	C109.128387,64.161629 97.443367,68.709045 85.609283,72.328583 
	C83.692627,72.914810 82.232292,75.285591 80.796982,77.026077 
	C80.107254,77.862457 80.138008,79.255722 79.552971,80.221397 
	C72.358101,92.097488 73.920715,104.753471 75.651329,117.627907 
	C76.569130,124.455582 76.143982,131.476059 76.116333,138.408661 
	C76.110466,139.880432 75.197060,141.348602 74.291267,144.036667 
	C65.931908,133.132904 71.049789,120.950058 67.216446,110.083130 
	C65.525284,113.042015 64.230110,116.257599 62.122459,118.799507 
	C57.629559,124.218063 52.693901,129.268097 47.994102,134.517868 
	C47.201981,135.402695 46.631268,136.502975 46.046505,137.552856 
	C44.441559,140.434448 42.883568,143.342194 41.004425,146.795639 
	C36.027073,141.827713 34.895763,136.883316 35.860897,131.684723 
	C39.440575,112.403152 39.375935,93.031128 37.784657,73.602455 
	C37.585651,71.172707 36.843998,68.787392 36.236622,65.806488 
	C27.802046,71.520569 22.300230,80.443413 11.961095,83.409203 
	C23.570461,64.245125 40.158531,48.832710 45.251339,26.250557 
	C50.370640,25.777676 59.678417,34.222473 59.195251,40.211067 
	C59.054733,41.952747 57.649921,43.808880 56.377663,45.205288 
	C50.896160,51.221668 45.248505,57.086662 39.374592,63.310623 
	C46.016262,66.263901 46.169140,72.653336 46.116230,79.344765 
	C45.978706,96.738014 46.070015,114.133072 46.070015,131.527405 
	C46.581707,131.731018 47.093399,131.934616 47.605087,132.138229 
	C51.813614,124.944679 56.114639,117.802910 60.184799,110.531914 
	C61.796143,107.653404 63.268993,104.587280 64.110756,101.421982 
	C64.818108,98.762138 65.158112,95.680069 64.525574,93.058853 
	C63.361153,88.233543 63.494297,87.783989 68.852249,88.751228 
	C71.920425,77.865166 74.996025,66.952759 78.071625,56.040352 
	C77.352661,56.199673 76.633698,56.358997 75.914742,56.518322 
	C73.635155,53.821983 71.355576,51.125645 68.325180,47.541222 
	C78.918793,44.954605 87.927895,42.754871 97.829262,40.337280 
	C90.998825,33.940872 84.762634,28.100954 77.782494,21.564356 
	C81.745049,21.003428 85.495193,20.472569 89.673622,19.933083 
M100.922783,46.409184 
	C94.299004,48.478741 87.675217,50.548294 79.566818,53.081707 
	C86.388985,56.235794 84.220947,61.113655 84.051781,65.501617 
	C93.585983,63.001575 102.660400,60.622101 111.569084,58.286083 
	C112.574158,53.473969 113.520889,48.941212 114.694046,43.324326 
	C109.677155,44.417213 105.691940,45.285355 100.922783,46.409184 
z"/>
<path fill="#070707" opacity="1.000000" stroke="none" 
	d="
M87.825005,100.324974 
	C87.393272,97.974426 86.936760,96.064545 86.399559,93.817116 
	C82.344299,94.363235 79.492569,93.338501 79.788918,88.199272 
	C89.558914,85.790924 99.459572,83.275711 109.399704,80.927643 
	C115.514305,79.483246 121.688957,78.292931 127.837425,76.992226 
	C128.643616,76.821678 129.465866,76.716316 130.260941,76.506104 
	C132.455154,75.925964 135.410782,74.106689 136.683151,74.925423 
	C140.615753,77.455902 143.983337,80.905640 147.371033,84.203156 
	C147.966827,84.783089 147.791748,86.375664 147.650574,87.458595 
	C145.851913,101.257263 143.560303,115.008751 142.300354,128.854706 
	C141.420227,138.526794 136.780411,145.699509 129.972733,151.807434 
	C128.677185,152.969818 125.819496,153.329605 124.122055,152.756943 
	C123.088120,152.408081 122.928017,149.554779 122.317863,147.846985 
	C120.892334,143.856964 119.432091,139.879349 117.962624,135.832596 
	C117.540535,135.926804 117.955772,135.727615 118.351067,135.761444 
	C128.571182,136.636337 129.527634,136.668915 130.523743,126.547333 
	C131.818665,113.389603 131.575272,100.078186 131.919922,86.830994 
	C131.996674,83.880516 130.287491,82.609467 127.419487,83.020950 
	C121.720192,83.838654 116.030243,84.721451 110.893486,85.493614 
	C111.943642,91.346359 112.867592,96.495773 113.606468,100.613663 
	C116.725380,101.606209 119.850662,102.447151 122.816704,103.673279 
	C123.415535,103.920837 123.876060,105.819214 123.550941,106.605087 
	C123.242867,107.349754 121.847931,107.972397 120.881462,108.052658 
	C118.452789,108.254364 115.996140,108.119354 113.210922,108.119354 
	C112.718613,120.473564 114.035973,132.792755 106.588646,143.192871 
	C106.038231,143.229950 105.487808,143.267029 104.937393,143.304123 
	C104.603981,141.636932 103.999092,139.972488 103.982201,138.302094 
	C103.888313,129.017990 103.937157,119.732445 103.937157,110.405075 
	C96.567711,109.889641 94.009476,112.069183 94.025665,119.649796 
	C94.036049,124.512642 93.425072,129.039490 88.282097,133.504791 
	C88.282097,126.531715 88.282097,120.841423 88.282097,114.537987 
	C83.207222,116.775490 79.545326,117.249313 78.930855,110.525879 
	C83.401794,108.945084 90.066872,108.634048 87.825005,100.324974 
M104.858109,101.151314 
	C104.589211,96.992355 104.320320,92.833397 104.005219,87.959793 
	C99.075119,89.425194 95.249344,90.562355 92.554573,91.363342 
	C93.387268,97.053734 94.088051,101.842644 94.803635,106.732681 
	C97.193306,106.158165 99.663528,105.812164 101.917824,104.920357 
	C103.089294,104.456932 103.879303,103.029236 104.858109,101.151314 
z"/>
<path fill="#F4F4F4" opacity="1.000000" stroke="none" 
	d="
M101.314758,46.281342 
	C105.691940,45.285355 109.677155,44.417213 114.694046,43.324326 
	C113.520889,48.941212 112.574158,53.473969 111.569084,58.286083 
	C102.660400,60.622101 93.585983,63.001575 84.051781,65.501617 
	C84.220947,61.113655 86.388985,56.235794 79.566818,53.081707 
	C87.675217,50.548294 94.299004,48.478741 101.314758,46.281342 
z"/>
<path fill="#EEEEEE" opacity="1.000000" stroke="none" 
	d="
M104.849869,101.594223 
	C103.879303,103.029236 103.089294,104.456932 101.917824,104.920357 
	C99.663528,105.812164 97.193306,106.158165 94.803635,106.732681 
	C94.088051,101.842644 93.387268,97.053734 92.554573,91.363342 
	C95.249344,90.562355 99.075119,89.425194 104.005219,87.959793 
	C104.320320,92.833397 104.589211,96.992355 104.849869,101.594223 
z"/>
</svg>